<svg width="101" height="101" viewBox="0 0 101 101" fill="none" xmlns="http://www.w3.org/2000/svg">
<rect width="100.8" height="100.8" rx="50.4" fill="#CC703C"/>
<path d="M73 22L72.6964 22.8211L71.6973 25.4482L71.0339 27.1422C65.9976 39.839 62.0794 45.8651 57.9149 45.8651C55.5149 45.8651 54.0945 45.1601 52.2554 43.5056L51.7245 43.0144C50.4014 41.7708 49.8442 41.4651 48.5714 41.4651C47.908 41.4651 46.721 42.3307 45.2189 44.351C43.6614 46.446 41.9532 49.5409 40.1175 53.6176L39.9465 53.9991L57.8137 54L55.5891 58.7H38.9043V78H34V22H73ZM66.0479 26.7016L38.904 26.7V45.3632C42.1563 39.619 45.2466 36.7351 48.5714 36.7351C51.1564 36.7351 52.6795 37.4763 54.6011 39.201L55.1493 39.7078C56.3846 40.8688 56.8606 41.1351 57.9149 41.1351C59.0806 41.1351 62.1677 36.1462 66.0479 26.7016Z" fill="white"/>
</svg>
